<svg width="59" height="59" viewBox="0 0 59 59" fill="none" xmlns="http://www.w3.org/2000/svg">
<path fill-rule="evenodd" clip-rule="evenodd" d="M29.5 59C45.7924 59 59 45.7924 59 29.5C59 13.2076 45.7924 0 29.5 0C13.2076 0 0 13.2076 0 29.5C0 37.9333 3.53873 45.5401 9.2123 50.9164C9.94271 50.4585 10.668 49.9953 11.3878 49.527C11.4599 49.1224 11.5463 48.6324 11.643 48.075C11.6936 47.7905 11.7479 47.4891 11.8115 47.1747C11.8608 46.9215 11.9174 46.6612 11.9761 46.391L12.0006 46.2782C12.2437 45.1674 12.4987 43.9193 12.7073 42.6112H12.6186C10.2902 42.6542 8.15457 42.0253 6.92111 40.6365C6.35773 40.0039 5.959 39.2122 5.84109 38.2632C5.71568 37.2487 5.91036 36.0527 6.48871 34.6696L6.57851 34.4131L6.97161 34.4992C8.47459 34.7912 10.3987 35.1805 11.7089 36.88C12.3123 37.661 12.786 38.7231 13.0219 40.1906C13.0438 39.9653 13.0634 39.7396 13.0805 39.5138C13.1819 38.1825 13.2057 36.8538 13.097 35.6037C10.5628 34.6049 8.52982 31.6399 7.93935 28.4049C7.711 27.1528 7.69037 25.8594 7.95054 24.6484C8.34734 22.801 9.35812 21.1409 11.0726 20.0253L11.2523 19.8979L11.5349 20.1357C13.7623 21.9531 14.8796 24.5286 15.1828 27.3155C15.4692 29.9659 15.0088 32.8071 14.0655 35.3676L13.9182 35.7502C14.1029 36.9679 14.1735 38.2605 14.1624 39.5606C14.1399 42.0368 13.8368 44.5356 13.4568 46.5739C13.3988 46.8921 13.3351 47.1991 13.2658 47.4929C13.1891 47.813 13.1068 48.1162 13.0226 48.4007L13.005 48.4593C18.021 45.0993 22.7398 41.4767 26.9851 37.5739C26.9736 37.4157 26.9557 37.1082 26.952 36.6875C26.9501 36.4872 26.9502 36.2664 26.9689 36.023C26.9871 35.81 27.0192 35.5837 27.0529 35.346L27.0529 35.3459L27.0529 35.3459L27.0529 35.3458L27.053 35.3457L27.053 35.3453L27.053 35.3451L27.0531 35.3449L27.0531 35.3447L27.0531 35.3443L27.0532 35.344L27.0533 35.3436L27.0533 35.343C27.0749 35.1911 27.0971 35.0346 27.1167 34.8738C27.1903 34.2838 27.2657 33.6494 27.3061 33.0058C25.7672 31.9707 24.46 30.5058 23.609 28.9536C23.1935 28.1974 22.8866 27.4207 22.7069 26.6758C22.5141 25.8728 22.4504 25.1053 22.5515 24.4315C22.7443 23.1363 23.4201 22.1536 24.6966 21.8336C25.6044 21.4873 26.5702 21.8243 27.4124 22.6292C28.2584 23.4377 28.9734 24.7366 29.3534 26.2284C29.886 28.3331 29.7254 30.8045 28.3819 32.8294C28.4182 33.144 28.4459 33.4595 28.4662 33.7714C28.5018 34.2917 28.5186 34.797 28.5073 35.2687C28.4987 35.6003 28.4884 35.9126 28.4511 36.1966C31.2038 33.5532 33.7374 30.7843 35.9996 27.8849C36.6081 27.1066 37.1078 26.379 37.5518 25.63L37.3541 25.2532C36.2835 23.271 35.6451 20.6806 35.6769 18.2474C35.6919 17.1524 35.8417 16.0893 36.1374 15.1347C36.4425 14.1521 36.8879 13.2761 37.4944 12.5966C38.4433 11.5298 39.7368 10.8991 41.4101 11.0133C42.4751 10.9908 43.2106 11.6215 43.6374 12.6584C44.242 14.1259 44.182 16.4767 43.5437 18.777C42.7561 21.6111 41.0671 24.3201 38.7957 25.3313C38.252 26.4117 37.634 27.4113 36.8213 28.5082C36.3925 29.0866 35.9534 29.6603 35.5044 30.2294C35.7558 30.1124 36.017 29.9984 36.286 29.8875C36.7154 29.7113 37.1631 29.5457 37.6236 29.3991C38.4807 27.7273 39.989 26.2437 41.6692 25.2792C42.4422 24.8356 43.2507 24.5025 44.035 24.306C44.8622 24.0982 45.6634 24.0271 46.3728 24.1319C47.6904 24.3266 48.7142 25.0191 49.0661 26.3574C49.4348 27.312 49.4292 28.1037 49.1821 28.7513C48.7872 29.7938 47.7241 30.4826 46.3447 30.8663C43.6737 31.6113 39.803 31.1919 37.8883 30.4114L37.887 30.4109C37.8058 30.4506 37.7251 30.4908 37.6449 30.5314C36.8081 30.9554 36.0594 31.4558 35.394 31.9006C35.1813 32.0428 34.9771 32.1792 34.7812 32.3057C34.4311 32.5324 34.1064 32.7174 33.8267 32.8766L33.8266 32.8767L33.8135 32.8841C33.3308 33.1571 32.993 33.3287 32.8695 33.3902C29.743 36.9477 26.2326 40.3158 22.4375 43.4984C22.5555 43.4816 22.6783 43.4657 22.8058 43.4515C23.0123 43.4287 23.2294 43.4079 23.455 43.3862C24.2293 43.312 25.1041 43.2282 25.9969 43.0209C26.2616 42.9591 26.5278 42.8907 26.7932 42.8139L26.8956 42.5907C28.1122 39.8486 30.2833 38.3044 32.7277 37.6063C33.7235 37.3236 34.7642 37.1795 35.7974 37.1627C37.3958 37.1383 38.9643 37.4061 40.3232 37.7785L40.6956 37.8646L40.5291 38.3175C39.3967 41.5818 37.3358 43.2139 35.1123 43.9177C32.4327 44.7651 29.489 44.2352 27.5547 43.5084C26.8491 43.8656 26.1183 44.1497 25.4055 44.376C24.8234 44.5613 24.26 44.7092 23.7285 44.8102C23.3223 44.8889 22.9387 44.9544 22.5868 44.975C22.2218 44.9937 21.898 44.975 21.6228 44.9506C21.2466 44.9165 20.969 44.87 20.8091 44.8387C17.6043 47.4284 14.2142 49.8916 10.6952 52.2305C15.8003 56.4587 22.3534 59 29.5 59ZM13.4697 33.7014C14.1311 31.6569 14.4544 29.4734 14.2919 27.3979C14.0991 24.9273 13.2232 22.612 11.4001 20.8844C10.1311 21.9401 9.47978 23.3682 9.22523 24.8899C9.04555 25.9568 9.0642 27.0741 9.25699 28.1672C9.70457 30.7106 11.0556 33.1327 12.9181 34.2467C12.7767 33.4689 12.5691 32.7373 12.2795 32.0737C12.2196 31.9502 12.272 31.8005 12.3955 31.7406C12.5209 31.6807 12.6707 31.7332 12.7306 31.8567C13.029 32.4212 13.2731 33.0409 13.4697 33.7014ZM27.5828 29.6835C27.7531 30.0423 27.8942 30.4371 28.0107 30.8544C28.6114 29.4345 28.6624 27.8545 28.38 26.4492C28.06 24.8564 27.3263 23.4733 26.4223 22.7957C25.945 22.4382 25.4265 22.2772 24.9081 22.4419C24.1968 22.7676 23.8712 23.3665 23.7663 24.0946C23.6728 24.7478 23.7981 25.4984 24.0508 26.3032C24.2511 26.9359 24.5393 27.5929 24.8987 28.2461C25.5075 29.3535 26.3253 30.4501 27.3172 31.3355C27.2882 30.8145 27.2226 30.317 27.098 29.865C27.0493 29.7322 27.1167 29.5825 27.2496 29.5319C27.3843 29.4833 27.5323 29.5506 27.5828 29.6835ZM29.6318 42.1357C29.3767 42.3569 29.1091 42.5624 28.8324 42.7533C30.5232 43.3038 32.7581 43.6265 34.8521 43.0418C36.7819 42.5009 38.5805 41.1812 39.7279 38.5664C38.2792 38.3418 36.634 38.3139 35.0113 38.5235C33.9088 38.6657 32.8119 38.9128 31.7975 39.3638C30.4804 39.9496 29.2982 40.8514 28.4335 42.206C28.7386 42.0624 29.0363 41.9014 29.323 41.7201C29.4372 41.6358 29.6 41.6603 29.6843 41.7744C29.7704 41.8886 29.746 42.0496 29.6318 42.1357ZM39.6958 29.6637C41.5504 30.1738 44.1612 30.4076 46.1163 29.966C47.8944 29.5617 49.111 28.5716 48.4577 26.5745C48.1096 25.8164 47.4807 25.4627 46.7264 25.3486C46.0377 25.2437 45.2478 25.3766 44.4167 25.6462C43.7523 25.8595 43.071 26.1702 42.4028 26.5557C41.3332 27.1717 40.3047 27.9812 39.5237 28.9329C40.0549 28.844 40.5928 28.7911 41.13 28.7851C41.2723 28.7739 41.3976 28.8786 41.4089 29.0209C41.4201 29.1631 41.3153 29.2885 41.1731 29.2997C40.6721 29.3792 40.1785 29.5052 39.6958 29.6637ZM40.5553 21.0663C40.2633 21.8764 39.9916 22.602 39.7202 23.2724C41.0214 22.1471 41.9962 20.334 42.5855 18.4907C43.2481 16.4206 43.4258 14.2887 42.9336 12.9317C42.6584 12.1774 42.1737 11.6758 41.4101 11.659C40.2833 11.7394 39.4373 12.2036 38.7878 12.8886C38.1495 13.5624 37.7414 14.4759 37.4794 15.5128C37.2642 16.3663 37.1612 17.3003 37.1481 18.2661C37.1257 20.2782 37.5076 22.4175 38.2806 24.1563C38.3072 24.1461 38.3338 24.1356 38.3603 24.1249C38.8361 23.1492 39.2807 22.0752 39.788 20.7781C39.8666 20.5647 40.1043 20.4579 40.3158 20.5366C40.5292 20.617 40.6358 20.8548 40.5553 21.0663ZM7.24304 35.231C6.96977 36.3372 6.96602 37.2693 7.12137 38.0592C7.25427 38.733 7.52565 39.2927 7.92619 39.7513C8.83959 40.7994 10.3519 41.3366 12.057 41.4583C12.0233 39.5884 11.6153 38.3063 10.9883 37.4097C10 35.9947 8.5027 35.5436 7.24304 35.231Z" fill="#343D33"/>
</svg>
